<svg id="mermaidChart801" width="100%" xmlns="http://www.w3.org/2000/svg" height="100%" style="max-width:1150px;" viewBox="-150 -10 1150 763"><style type="text/css" title="mermaid-svg-internal-css">/*  */
*, ::before, ::after { box-sizing: inherit;}
.actor { stroke: rgb(204, 204, 255); fill: rgb(226, 236, 255);}
text.actor { fill: black; stroke: none; font-size: 12px;}
.actor-line { stroke: grey;}
.messageLine0 { stroke-width: 1.5; stroke: black;}
#arrowhead { fill: black;}
.messageText { fill: black; stroke: none; font-size: 12px;}
.note { stroke: rgb(204, 204, 255); fill: rgb(255, 245, 173);}
.noteText { fill: black; stroke: none; font-size: 12px;}
.actor { stroke: rgb(204, 204, 255); fill: rgb(236, 236, 255);}
text.actor { fill: black; stroke: none;}
.actor-line { stroke: grey;}
.messageLine0 { stroke-width: 1.5; stroke: rgb(51, 51, 51);}
#arrowhead { fill: rgb(51, 51, 51);}
#crosshead path { fill: rgb(51, 51, 51) !important; stroke: rgb(51, 51, 51) !important;}
.messageText { fill: rgb(51, 51, 51); stroke: none;}
.note { stroke: rgb(170, 170, 51); fill: rgb(255, 245, 173);}
.noteText { fill: black; stroke: none; font-family: 'trebuchet ms', verdana, arial; font-size: 14px;}
text { font-family: 'trebuchet ms', verdana, arial; font-size: 14px;}
/*  */
</style><g></g><g><line id="actor3939" x1="75" y1="5" x2="75" y2="752" class="actor-line" stroke-width="0.5px" stroke="#999"></line><rect x="0" y="0" fill="#eaeaea" stroke="#666" width="150" height="65" rx="3" ry="3" class="actor"></rect><text x="75" y="37.5" class="actor" style="text-anchor: middle;">Desktop Server</text></g><g><line id="actor3940" x1="275" y1="5" x2="275" y2="752" class="actor-line" stroke-width="0.5px" stroke="#999"></line><rect x="200" y="0" fill="#eaeaea" stroke="#666" width="150" height="65" rx="3" ry="3" class="actor"></rect><text x="275" y="37.5" class="actor" style="text-anchor: middle;">Backend A</text></g><g><line id="actor3941" x1="475" y1="5" x2="475" y2="752" class="actor-line" stroke-width="0.5px" stroke="#999"></line><rect x="400" y="0" fill="#eaeaea" stroke="#666" width="150" height="65" rx="3" ry="3" class="actor"></rect><text x="475" y="37.5" class="actor" style="text-anchor: middle;">DB</text></g><g><line id="actor3942" x1="675" y1="5" x2="675" y2="752" class="actor-line" stroke-width="0.5px" stroke="#999"></line><rect x="600" y="0" fill="#eaeaea" stroke="#666" width="150" height="65" rx="3" ry="3" class="actor"></rect><text x="675" y="37.5" class="actor" style="text-anchor: middle;">Backend B</text></g><g><line id="actor3943" x1="875" y1="5" x2="875" y2="752" class="actor-line" stroke-width="0.5px" stroke="#999"></line><rect x="800" y="0" fill="#eaeaea" stroke="#666" width="150" height="65" rx="3" ry="3" class="actor"></rect><text x="875" y="37.5" class="actor" style="text-anchor: middle;">Client</text></g><defs><marker id="arrowhead" refX="5" refY="2" markerWidth="6" markerHeight="4" orient="auto"><path d="M 0,0 V 4 L6,2 Z"></path></marker></defs><defs><marker id="crosshead" markerWidth="15" markerHeight="8" orient="auto" refX="16" refY="4"><path fill="black" stroke="#000000" stroke-width="1px" d="M 9,2 V 6 L16,4 Z" style="stroke-dasharray: 0, 0;"></path><path fill="none" stroke="#000000" stroke-width="1px" d="M 0,1 L 6,7 M 6,1 L 0,7" style="stroke-dasharray: 0, 0;"></path></marker></defs><g><rect x="-100" y="75" fill="#EDF2AE" stroke="#666" width="150" height="78" rx="0" ry="0" class="note"></rect><text x="-84" y="103" fill="black" class="noteText"><tspan x="-84">App running in</tspan><tspan dy="21" x="-84">desktop, tied to</tspan><tspan dy="21" x="-84">subdomain.</tspan></text></g><g><rect x="200" y="163" fill="#EDF2AE" stroke="#666" width="150" height="57" rx="0" ry="0" class="note"></rect><text x="216" y="191" fill="black" class="noteText"><tspan x="216">Identified with</tspan><tspan dy="21" x="216">backend_id</tspan></text></g><g><rect x="800" y="230" fill="#EDF2AE" stroke="#666" width="150" height="57" rx="0" ry="0" class="note"></rect><text x="816" y="258" fill="black" class="noteText"><tspan x="816">Browser pointing</tspan><tspan dy="21" x="816">to subdomain</tspan></text></g><g><text x="175" y="315" class="messageText" style="text-anchor: middle;">Establish permanent signaling channel</text><line x1="75" y1="322" x2="275" y2="322" class="messageLine0" stroke-width="2" stroke="black" marker-end="url(#arrowhead)" style="fill: none;"></line></g><g><text x="375" y="350" class="messageText" style="text-anchor: middle;">Map subdomain-&gt;backend_id</text><line x1="275" y1="357" x2="475" y2="357" class="messageLine0" stroke-width="2" stroke="black" marker-end="url(#arrowhead)" style="fill: none;"></line></g><g><text x="775" y="385" class="messageText" style="text-anchor: middle;">Request file</text><line x1="875" y1="392" x2="675" y2="392" class="messageLine0" stroke-width="2" stroke="black" marker-end="url(#arrowhead)" style="fill: none;"></line></g><g><text x="675" y="420" class="messageText" style="text-anchor: middle;">Create enumerator identified with stream_id</text><path d="M 675,427 C 735,417 735,457 675,447" class="messageLine0" stroke-width="2" stroke="black" marker-end="url(#arrowhead)" style="fill: none;"></path></g><g><text x="575" y="485" class="messageText" style="text-anchor: middle;">ask for backend_id for subdomain</text><line x1="675" y1="492" x2="475" y2="492" class="messageLine0" stroke-width="2" stroke="black" marker-end="url(#arrowhead)" style="fill: none;"></line></g><g><text x="575" y="520" class="messageText" style="text-anchor: middle;">backend_id</text><line x1="475" y1="527" x2="675" y2="527" class="messageLine0" stroke-width="2" stroke="black" marker-end="url(#arrowhead)" style="fill: none;"></line></g><g><text x="475" y="555" class="messageText" style="text-anchor: middle;">Call WS at backend_id asking to send file to Backend B, stream_id (from subdomain)</text><line x1="675" y1="562" x2="275" y2="562" class="messageLine0" stroke-width="2" stroke="black" marker-end="url(#arrowhead)" style="fill: none;"></line></g><g><text x="175" y="590" class="messageText" style="text-anchor: middle;">Ask To send file to Backend B, stream_id</text><line x1="275" y1="597" x2="75" y2="597" class="messageLine0" stroke-width="2" stroke="black" marker-end="url(#arrowhead)" style="fill: none;"></line></g><g><text x="375" y="625" class="messageText" style="text-anchor: middle;">Send file to Backend B, stream_id</text><line x1="75" y1="632" x2="675" y2="632" class="messageLine0" stroke-width="2" stroke="black" marker-end="url(#arrowhead)" style="fill: none;"></line></g><g><text x="775" y="660" class="messageText" style="text-anchor: middle;">Send file feeding enumerator stream_id</text><line x1="675" y1="667" x2="875" y2="667" class="messageLine0" stroke-width="2" stroke="black" marker-end="url(#arrowhead)" style="fill: none;"></line></g><g><rect x="0" y="687" fill="#eaeaea" stroke="#666" width="150" height="65" rx="3" ry="3" class="actor"></rect><text x="75" y="724.5" class="actor" style="text-anchor: middle;">Desktop Server</text></g><g><rect x="200" y="687" fill="#eaeaea" stroke="#666" width="150" height="65" rx="3" ry="3" class="actor"></rect><text x="275" y="724.5" class="actor" style="text-anchor: middle;">Backend A</text></g><g><rect x="400" y="687" fill="#eaeaea" stroke="#666" width="150" height="65" rx="3" ry="3" class="actor"></rect><text x="475" y="724.5" class="actor" style="text-anchor: middle;">DB</text></g><g><rect x="600" y="687" fill="#eaeaea" stroke="#666" width="150" height="65" rx="3" ry="3" class="actor"></rect><text x="675" y="724.5" class="actor" style="text-anchor: middle;">Backend B</text></g><g><rect x="800" y="687" fill="#eaeaea" stroke="#666" width="150" height="65" rx="3" ry="3" class="actor"></rect><text x="875" y="724.5" class="actor" style="text-anchor: middle;">Client</text></g></svg>